# xmcd
# 
# Track frame offsets:
#     183
#     13733
#     27195
#     38830
#     57668
#     71590
#     89543
#     106618
#     121583
#     134850
#     151160
#     165040
#     177983
#     195793
#     208408
#     225108
# 
# Disc length: 3222
# 
# Revision: 3
# Processed by: cddbd v1.5.2PL0 Copyright (c) Steve Scherf et al.
# Submitted via: BonkEnc v1.0
# 
DISCID=c60c9410
DTITLE=Carpenters - Golden Stars international
DYEAR=0
DGENRE=Oldies
TTITLE0=Top Of The World
TTITLE1=Sweet, Sweet Smile
TTITLE2=For All We Know
TTITLE3=Ticket To Ride
TTITLE4=We've Only Just Begun
TTITLE5=Yesterday Once More
TTITLE6=Superstar
TTITLE7=Sing
TTITLE8=It's Going To Take Some Time
TTITLE9=Rainy Days And Mondays
TTITLE10=There's A Kind Of Hush
TTITLE11=Please Mr. Postman
TTITLE12=Goodbye To Love
TTITLE13=Hurting Each Other
TTITLE14=Jambalaya (On The Bayou)
TTITLE15=Close To You (They Long To Be)
EXTD=
EXTT0=
EXTT1=
EXTT2=
EXTT3=
EXTT4=
EXTT5=
EXTT6=
EXTT7=
EXTT8=
EXTT9=
EXTT10=
EXTT11=
EXTT12=
EXTT13=
EXTT14=
EXTT15=
PLAYORDER=
